HIERARCHY
ROOT Hips
{
    OFFSET 13.71989917755127 92.31851959228516 -17.96615219116211
    CHANNELS 6 Xposition Yposition Zposition Zrotation Xrotation Yrotation
    JOINT RightUpLeg
    {
        OFFSET -13.71989917755127 0.0 0.0
        CHANNELS 3 Zrotation Xrotation Yrotation
        JOINT RightLeg
        {
            OFFSET 0.0 -47.40314483642578 0.0
            CHANNELS 3 Zrotation Xrotation Yrotation
            JOINT RightFoot
            {
                OFFSET 0.0 -44.915374755859375 0.0
                CHANNELS 3 Zrotation Xrotation Yrotation
                End Site
                {
                    OFFSET 0.0 0.0 17.96615219116211
                }
            }
        }
    }
    JOINT LeftUpLeg
    {
        OFFSET 13.71989917755127 0.0 0.0
        CHANNELS 3 Zrotation Xrotation Yrotation
        JOINT LeftLeg
        {
            OFFSET 0.0 -47.40314483642578 0.0
            CHANNELS 3 Zrotation Xrotation Yrotation
            JOINT LeftFoot
            {
                OFFSET 0.0 -44.915374755859375 0.0
                CHANNELS 3 Zrotation Xrotation Yrotation
                End Site
                {
                    OFFSET 0.0 0.0 17.96615219116211
                }
            }
        }
    }
    JOINT Spine
    {
        OFFSET 0.0 25.583250045776367 0.0
        CHANNELS 3 Zrotation Xrotation Yrotation
        JOINT Spine3
        {
            OFFSET 0.0 25.67367172241211 0.0
            CHANNELS 3 Zrotation Xrotation Yrotation
            JOINT Neck
            {
                OFFSET 0.0 10.974285125732422 0.0
                CHANNELS 3 Zrotation Xrotation Yrotation
                End Site
                {
                    OFFSET 0.0 4.389713764190674 0.0
                }
            }
            JOINT LeftArm
            {
                OFFSET 15.100637435913086 0.0 0.0
                CHANNELS 3 Zrotation Xrotation Yrotation
                JOINT LeftForeArm
                {
                    OFFSET 29.285179138183594 0.0 0.0
                    CHANNELS 3 Zrotation Xrotation Yrotation
                    JOINT LeftHand
                    {
                        OFFSET 24.885177612304688 0.0 0.0
                        CHANNELS 3 Zrotation Xrotation Yrotation
                        End Site
                        {
                            OFFSET 9.954071044921875 0.0 0.0
                        }
                    }
                }
            }
            JOINT RightArm
            {
                OFFSET -15.100637435913086 0.0 0.0
                CHANNELS 3 Zrotation Xrotation Yrotation
                JOINT RightForeArm
                {
                    OFFSET -29.285179138183594 0.0 0.0
                    CHANNELS 3 Zrotation Xrotation Yrotation
                    JOINT RightHand
                    {
                        OFFSET -24.885177612304688 0.0 0.0
                        CHANNELS 3 Zrotation Xrotation Yrotation
                        End Site
                        {
                            OFFSET -9.954071044921875 0.0 0.0
                        }
                    }
                }
            }
        }
    }
}
MOTION
Frames: 4
Frame Time: 0.03333333333333333
0.0004758451832458377 93.25714111328125 -0.0007640810217708349 15.7003054159368 -3.62355405560069 65.18700129036965 8.222704897055761 7.042340833067733 -0.9674969390478914 0.6883049339521735 13.229495094654093 -1.9377659470035433 0.0 0.0 -2.782985346280578e-15 -1.3666439100991077 18.473150897062986 0.5671089218339735 -12.800997012305519 33.83087198927387 8.178143097719206 3.1805546814635164e-15 -1.5902773407317582e-15 2.385416011097637e-15 4.7545123250712225 29.074671649833434 -2.109167671944444 -1.4672882460645702e-06 -4.2998155236918964e-07 -4.1842404227662815 0.1870102758856579 -6.7157331462772305 175.74338086939278 120.6928409223959 -11.745039973943726 -164.31621651530557 1.3197715320924272e-07 -3.6209744664813626e-07 35.053842919889654 9.14409470920761e-15 -3.1805546814635168e-15 -1.5902773407317582e-15 -117.99625932489866 -4.169189635605505 173.99022445780795 1.2507696671666056e-06 7.922781613946022e-06 -10.880474871569316 -1.7655625192200634e-31 -3.1805546814635168e-15 -6.3611093629270335e-15
0.0005092176143079996 93.2569808959961 -0.0007396891014650464 16.361789782016903 -3.201016046581783 65.47287002569172 7.6691538639866605 8.72132290660397 -1.1485237490771862 0.7829006140301581 12.676598275213967 -1.8062131905226708 0.0 0.0 -4.572047354603805e-15 -0.48318019203418533 15.434973880278228 0.17521059692372934 -13.69812769175376 39.65962792993766 9.242768866892492 6.361109362927035e-15 6.361109362927035e-15 3.1805546814635168e-15 3.9465872641647723 29.7991223761084 -1.8803601150226172 -4.045535525953374e-07 -3.5264185947913767e-07 -2.7036157077896643 0.06252452492306436 -7.194768951849513 175.50737460497362 120.77309925871994 -14.919643077965253 -163.35868418285972 -1.1143918409693428e-08 -4.338405063644269e-06 31.456981364087195 -1.1927080055488192e-15 7.951386703658794e-16 3.1805546814635176e-15 -119.12791900319289 -5.120449821529969 171.2287019200028 -7.734192211557303e-08 8.806847143011483e-06 -13.440840687894456 -1.7655625192200634e-31 -3.1805546814635168e-15 -6.3611093629270335e-15
0.00048541504656895995 93.25685119628906 -0.0007277107215486467 16.75387905104317 -2.656267745814213 64.90200222344136 6.532009315497135 10.065737793266031 -1.1524382029763944 1.0747891992082306 12.497128525705358 -1.6314633643430998 -7.951386703658791e-16 -1.5902773407317584e-15 4.67143968839954e-15 -0.03047501308646119 10.803473889194835 0.0069798095929357136 -14.030414111435368 46.404876624611724 10.257136109570634 0.0 0.0 7.951386703658792e-16 2.859753688074676 30.33340917996543 -1.4513407626790946 -9.501824487769853e-07 6.564266401753326e-07 -0.7410112027256748 -0.4869732936321088 -7.083152625729058 176.2440612242807 120.95706536168403 -18.946964937037112 -162.6026307998417 6.928518236870502e-06 -1.9810738363411416e-06 27.597228480208226 -2.782985346280577e-15 7.951386703658792e-16 1.5902773407317584e-15 -120.94206702599907 -7.514954169477731 167.7476786110184 -1.810366910859079e-06 3.1464038175843996e-06 -16.12200469333725 -3.1805546814635168e-15 6.3611093629270335e-15 1.7655625192200634e-31
0.0005251886905170977 93.25685119628906 -0.0007222151616588235 17.135371364371682 -2.5364050039086887 64.42895018081651 5.868126518170583 11.318339846585982 -1.0894012083626088 1.011065126065425 11.79784679210414 -1.3138604152611915 0.0 0.0 -9.54166404439055e-15 0.18882033026367132 7.51114108218531 0.02611759722641017 -13.234356587345552 51.318664887624735 10.516599271931097 6.620859447075238e-32 1.5902773407317582e-15 -4.770832022195274e-15 1.7653724523975411 31.100813553741766 -0.7302982294299336 -2.179917556380352e-07 -2.644091540343317e-07 0.8844808577293135 -0.8716862154010194 -7.025428178562354 175.66715453051037 120.74539929680294 -20.693946147679394 -161.94184501830355 4.86477420425402e-06 -3.235113620323191e-06 24.413252520222535 -1.5902773407317584e-15 3.1805546814635168e-15 4.4139062980501586e-32 -121.84313022666575 -7.229180081903085 164.60428380967093 -1.6598494519332275e-06 -5.645031567244775e-06 -19.152495979012713 -6.3611093629270335e-15 -3.531125038440127e-31 6.3611093629270335e-15
